<svg xmlns="http://www.w3.org/2000/svg" viewBox="0 0 99.36 70.68"><defs><style>.cls-1{fill:#fff;}</style></defs><g id="Capa_2" data-name="Capa 2"><g id="Capa_1-2" data-name="Capa 1"><path class="cls-1" d="M79.52,66.22a1.84,1.84,0,0,1-.39.24l-.33.14-.64.26-1.29.48c-.87.32-1.74.61-2.62.88-1.76.55-3.56,1-5.37,1.33a61.55,61.55,0,0,1-11,1.13,65.21,65.21,0,0,1-11.07-.85A53.71,53.71,0,0,1,36,67a47.56,47.56,0,0,1-9.91-5.21,65.29,65.29,0,0,1-8.68-7A65.56,65.56,0,0,1,4.13,36.88,42.62,42.62,0,0,1,.47,26.19,23.27,23.27,0,0,1,1,14.72,16.91,16.91,0,0,1,3.81,9.57a19.77,19.77,0,0,1,4.3-3.88,26.06,26.06,0,0,1,5-2.66A35.2,35.2,0,0,1,18.5,1.31,53.72,53.72,0,0,1,40.62,1,47.19,47.19,0,0,1,51.21,4.25,32.52,32.52,0,0,1,56.1,6.9a24.37,24.37,0,0,1,4.33,3.51,17.78,17.78,0,0,1,3.35,4.49,31.36,31.36,0,0,1,2,5.19A100.81,100.81,0,0,0,69.3,30.45,78.22,78.22,0,0,0,80.7,48.94a94.48,94.48,0,0,0,7.39,8c2.61,2.53,5.38,4.85,8.19,7.24.7.61,1.39,1.2,2.1,1.94a4.77,4.77,0,0,1,.55.65,2.7,2.7,0,0,1,.28.5,1.64,1.64,0,0,1,.12,1,1.56,1.56,0,0,1-.33.67,2.46,2.46,0,0,1-.48.37,2.42,2.42,0,0,1-.74.2h-.52l-.43,0A13.72,13.72,0,0,1,94,68.63c-.89-.33-1.76-.69-2.61-1.07a99.1,99.1,0,0,1-9.83-5.22A151.47,151.47,0,0,1,63.44,49.51c-2.85-2.35-5.62-4.81-8.27-7.42s-5.06-5.42-7.63-7.84a75.18,75.18,0,0,0-17.76-12A90.71,90.71,0,0,0,9.41,15.18l1.16-2.55L28.08,26.11c5.81,4.5,11.65,9,17.37,13.5Zm-.28,0-17.91-13L43.64,40.37C37.75,36.14,32,31.89,26.17,27.66L8.85,14.93,3.5,11,10,12.38a92.91,92.91,0,0,1,21.11,7.11,79.1,79.1,0,0,1,9.7,5.58,69.88,69.88,0,0,1,8.82,7c2.74,2.62,5.06,5.44,7.62,8s5.22,5,8,7.34A149.05,149.05,0,0,0,82.86,60.12a95.51,95.51,0,0,0,9.47,5.26c.81.38,1.63.74,2.45,1.06a12.33,12.33,0,0,0,2.38.73l.25,0h.17l-.08,0a.37.37,0,0,0-.2.17.66.66,0,0,0-.19.36.7.7,0,0,0,0,.33s0,0-.06-.09a4,4,0,0,0-.32-.4c-.55-.6-1.24-1.21-1.91-1.81-2.73-2.41-5.49-4.9-8.07-7.54a94.71,94.71,0,0,1-7.3-8.34A80.91,80.91,0,0,1,68.32,30.85a97.12,97.12,0,0,1-3.43-10.48,30.83,30.83,0,0,0-1.92-5A17,17,0,0,0,59.82,11a24,24,0,0,0-4.21-3.37A32.56,32.56,0,0,0,50.84,5.1a44.88,44.88,0,0,0-10.42-3A51.48,51.48,0,0,0,18.94,3,34,34,0,0,0,13.89,4.8,24.84,24.84,0,0,0,9.31,7.4,17.83,17.83,0,0,0,5.57,11a15.33,15.33,0,0,0-2.3,4.5A21.16,21.16,0,0,0,3,25.72a39.47,39.47,0,0,0,3.48,10A64.12,64.12,0,0,0,19.1,53.06,56.67,56.67,0,0,0,36.74,65.19a52.31,52.31,0,0,0,10.35,3,65.09,65.09,0,0,0,10.79,1.15,61.75,61.75,0,0,0,10.86-.63c1.79-.29,3.58-.62,5.35-1.07q1.32-.33,2.64-.72l1.3-.41.65-.22.32-.11A.94.94,0,0,1,79.24,66.18Z"/></g></g></svg>