<svg xmlns="http://www.w3.org/2000/svg" viewBox="0 0 200 200"><defs><style>.cls-1{fill:#cde7a2;}.cls-2{fill:#262626;}</style></defs><g id="Capa_2" data-name="Capa 2"><g id="Capa_1-2" data-name="Capa 1"><rect class="cls-1" width="200" height="200"/><path class="cls-2" d="M167.42,172.6a7.37,7.37,0,0,0-2.12-1.19c-.81-.28-1.53-.52-2.26-.81s-1.44-.63-2.17-1a10.56,10.56,0,0,0-2.25-.86l.18-.41a18.75,18.75,0,0,0,2.34,1.62c.81.49,1.62,1,2.44,1.53a38.09,38.09,0,0,1,4.49,3.53h-.81c.55-.39,1.16-.73,1.75-1.09v.46A6.5,6.5,0,0,0,167.42,172.6Zm.09-.11,1.94,1.48.22.17-.24.3a19.41,19.41,0,0,1-1.36,1.62l-.32.35-.53-.34a36.29,36.29,0,0,1-4.48-3.54c-.72-.61-1.4-1.3-2.07-2a16.81,16.81,0,0,0-2.15-1.89l-.81-.58,1,.17c.81.14,1.62.22,2.47.36a8.32,8.32,0,0,1,2.44.75,8.92,8.92,0,0,1,2.06,1.45C166.27,171.38,166.87,172,167.51,172.49Z"/><path class="cls-2" d="M156.23,167.39a6.83,6.83,0,0,1,3.82-2.69,13,13,0,0,1,4.69-.5,10.47,10.47,0,0,1,4.54,1.32l.51.31c.16.12.31.25.46.38a4.45,4.45,0,0,1,.82.86,6.12,6.12,0,0,1,1,2.2l-.32-.06a31.46,31.46,0,0,0,5.18-11,19,19,0,0,0,.48-6,12,12,0,0,0-1.85-5.59,14,14,0,0,0-4.24-4.06,23.29,23.29,0,0,0-5.47-2.43,38.53,38.53,0,0,0-12-1.57,42.73,42.73,0,0,0-12,2,28.32,28.32,0,0,0-10.49,6,39.93,39.93,0,0,0-7.7,9.47,36.86,36.86,0,0,0-4.27,11.45l-.31-.26c4.53-1.42,9.05-2.89,13.56-4.35s9-2.9,13.54-4.39l27.06-8.88,2.29-.76-1.71,1.72a49.59,49.59,0,0,1-25.91,14.17c-2.49.39-4.87.6-7.3,1.06s-4.77,1-7.14,1.62a90.13,90.13,0,0,0-13.79,5,42,42,0,0,0-6.33,3.51,6.08,6.08,0,0,0-1.2,1.06l-.06.08h0V177a.75.75,0,0,0,0-.16.31.31,0,0,0-.13-.17.17.17,0,0,0-.1-.06h0a3.49,3.49,0,0,0,.65,0c1.15-.2,2.36-.51,3.56-.77a61,61,0,0,1,14.8-1.68,50.07,50.07,0,0,1,14.67,2.36c2.36.76,4.62,1.8,6.95,2.43a11.6,11.6,0,0,0,3.61.42,11,11,0,0,0,1.81-.21c.59-.13,1.17-.31,1.77-.46l-.06.24a16.19,16.19,0,0,1-3.44-5.31,9.47,9.47,0,0,1-.68-3.1A5.57,5.57,0,0,1,156.23,167.39Zm.12.07a5.41,5.41,0,0,0-.65,3,9.29,9.29,0,0,0,.7,3,16,16,0,0,0,3.44,5.18l.17.16-.22.08a13,13,0,0,1-7.38.39c-2.43-.61-4.69-1.62-7-2.27a48.88,48.88,0,0,0-14.48-1.89,63.15,63.15,0,0,0-14.48,1.92c-1.2.29-2.36.61-3.65.81a3.13,3.13,0,0,1-1.18,0l-.23-.06a1.44,1.44,0,0,1-.31-.19,1,1,0,0,1-.26-.35,1,1,0,0,1-.07-.38.54.54,0,0,1,0-.18v-.13a1.28,1.28,0,0,1,.08-.23,3.3,3.3,0,0,1,.18-.32,7.31,7.31,0,0,1,1.54-1.4,43.46,43.46,0,0,1,6.56-3.67,90.49,90.49,0,0,1,14-5.13c2.43-.66,4.82-1.24,7.3-1.67s5-.65,7.3-1a37,37,0,0,0,7-1.86,46.42,46.42,0,0,0,6.66-2.93,55.55,55.55,0,0,0,11.7-8.69l.58,1L146.4,159.1c-4.53,1.39-9.07,2.81-13.59,4.24s-9,2.84-13.57,4.32l-.37.13.07-.4a37.81,37.81,0,0,1,4.23-11.65,40.44,40.44,0,0,1,7.63-9.82,29.11,29.11,0,0,1,10.7-6.41,41.25,41.25,0,0,1,12.3-2.21,36,36,0,0,1,12.42,1.62A23.4,23.4,0,0,1,172,141.6a14.56,14.56,0,0,1,4.51,4.5,12.93,12.93,0,0,1,1.84,6.08,20.24,20.24,0,0,1-.68,6.25A31.91,31.91,0,0,1,172,169.51l-.24.31-.08-.38a5.94,5.94,0,0,0-.86-2.1,4.19,4.19,0,0,0-.82-.81l-.44-.37-.49-.3a10.38,10.38,0,0,0-4.41-1.33,12.64,12.64,0,0,0-4.62.46A6.66,6.66,0,0,0,156.35,167.46Z"/><path class="cls-2" d="M164.53,181.93a8.46,8.46,0,0,0,2.64.45,21.19,21.19,0,0,0,2.65-.19c.86-.12,1.72-.23,2.57-.4l.63-.12.64-.17,1.27-.32-.09.73c-.65-.63-1.3-1.26-2-1.82s-1.42-1.11-2.16-1.62L168.45,177c-.75-.5-1.49-1-2.21-1.54h.81a21.26,21.26,0,0,1-3.3,2.43,14.46,14.46,0,0,1-3.79,1.57l.26-1a17.07,17.07,0,0,0,1.9,2.09A8,8,0,0,0,164.53,181.93Zm-.05.14a20.12,20.12,0,0,1-2.69-1.18,13.72,13.72,0,0,1-2.5-1.62l-.73-.63,1-.43a32.72,32.72,0,0,0,6.66-3.79l.44-.34.39.33c.68.57,1.37,1.17,2,1.78l2,1.85c.68.6,1.37,1.18,2.09,1.71s1.48,1,2.25,1.52l.61.39-.71.33c-.42.18-.81.4-1.27.58-.22.1-.43.21-.65.29l-.69.2a8.75,8.75,0,0,1-2.79.28,12.84,12.84,0,0,1-2.76-.46c-.9-.28-1.77-.54-2.63-.83Z"/><path class="cls-2" d="M174.9,175.14c-.44-.81-.89-1.62-1.31-2.48A19.3,19.3,0,0,1,172.5,170l1,.21a14.18,14.18,0,0,1-1.8,2.29,19.14,19.14,0,0,1-2.19,1.93v-.56a15.32,15.32,0,0,0,4.34,4.3c.81.58,1.73,1.09,2.6,1.62a29.64,29.64,0,0,0,2.64,1.45,10.52,10.52,0,0,0,1.34.56,1.32,1.32,0,0,0,.3.09h.14a.57.57,0,0,0-.45.3.6.6,0,0,0-.09.52.36.36,0,0,0,0,.11l-.13-.14c-.66-.67-1.49-1.41-2.16-2.21A33.15,33.15,0,0,1,174.9,175.14Zm.13-.07a16.35,16.35,0,0,0,4.05,4.52c.77.69,1.5,1.29,2.32,2.06a2.22,2.22,0,0,1,.36.45.81.81,0,0,1,.12.29.86.86,0,0,1-.1.7,1,1,0,0,1-.81.43,2.49,2.49,0,0,1-.61-.08l-.44-.15a12,12,0,0,1-1.48-.73,24.47,24.47,0,0,1-2.64-1.73c-.81-.64-1.63-1.36-2.37-2.06l-4.49-4.33-.26-.24.28-.32c.63-.71,1.19-1.47,1.79-2.18s1.18-1.45,1.83-2.14l.81-.92.18,1.12c.16.93.23,1.83.43,2.73A10.31,10.31,0,0,0,175,175.07Z"/></g></g></svg>