<svg xmlns="http://www.w3.org/2000/svg" viewBox="0 0 200 200"><defs><style>.cls-1{fill:#295440;}.cls-2{fill:#fff;}</style></defs><g id="Capa_2" data-name="Capa 2"><g id="Capa_1-2" data-name="Capa 1"><rect class="cls-1" width="200" height="200"/><path class="cls-2" d="M108.32,110.76a8.52,8.52,0,0,1,4.79-3.37,15.85,15.85,0,0,1,5.89-.63,13,13,0,0,1,5.7,1.65l.64.39c.2.15.39.32.59.48a5.12,5.12,0,0,1,1,1.08,7.59,7.59,0,0,1,1.22,2.76l-.41-.08A39.43,39.43,0,0,0,134.3,99.2a24.05,24.05,0,0,0,.6-7.55,14.78,14.78,0,0,0-2.32-7,17.41,17.41,0,0,0-5.32-5.14,28.38,28.38,0,0,0-6.87-3.1,48.43,48.43,0,0,0-15.07-1.89,53.68,53.68,0,0,0-15,2.59,35.35,35.35,0,0,0-13.16,7.51,50.17,50.17,0,0,0-9.67,11.88,46.26,46.26,0,0,0-5.36,14.38l-.39-.34c5.69-1.77,11.35-3.63,17-5.45s11.33-3.67,17-5.54l34-11.16,2.87-.94-2.14,2.16c-8.78,8.84-20.06,15.5-32.52,17.78-3.12.49-6.16.75-9.16,1.33s-6,1.24-9,2.05A112.41,112.41,0,0,0,62.51,117a53.22,53.22,0,0,0-7.95,4.41,7.55,7.55,0,0,0-1.51,1.33l-.06.1v0h0a.28.28,0,0,0,0-.09.84.84,0,0,0,0-.2.44.44,0,0,0-.16-.21.22.22,0,0,0-.13-.08s0,0,0,0a4.11,4.11,0,0,0,.82-.06c1.43-.24,3-.63,4.47-1a77.44,77.44,0,0,1,18.58-2.11,62.86,62.86,0,0,1,18.41,3c3,1,5.79,2.25,8.73,3.09a14.66,14.66,0,0,0,4.52.53,14.5,14.5,0,0,0,2.27-.27c.75-.16,1.48-.38,2.22-.58l-.07.3a20.23,20.23,0,0,1-4.32-6.66,12.34,12.34,0,0,1-.86-3.89A7,7,0,0,1,108.32,110.76Zm.16.09a6.82,6.82,0,0,0-.83,3.76,11.89,11.89,0,0,0,.88,3.8,20.1,20.1,0,0,0,4.33,6.51l.19.2-.27.09a16.29,16.29,0,0,1-9.25.5c-3-.78-5.89-2-8.84-2.85a61.43,61.43,0,0,0-18.18-2.38,78.61,78.61,0,0,0-18.17,2.44c-1.51.35-3,.77-4.58,1.07a4.66,4.66,0,0,1-1.49.05A2.33,2.33,0,0,1,52,124a2.08,2.08,0,0,1-.38-.22,1.26,1.26,0,0,1-.32-.45,1.18,1.18,0,0,1-.1-.48,1.77,1.77,0,0,1,0-.23.66.66,0,0,1,0-.15,1.76,1.76,0,0,1,.1-.3,2.87,2.87,0,0,1,.23-.39A9.08,9.08,0,0,1,53.48,120a54.47,54.47,0,0,1,8.24-4.61,113.92,113.92,0,0,1,17.55-6.44c3-.83,6-1.56,9.13-2.09s6.22-.82,9.21-1.27a47.42,47.42,0,0,0,8.78-2.34,59.32,59.32,0,0,0,8.33-3.76,69.08,69.08,0,0,0,14.68-10.9l.73,1.21L96,100.35q-8.55,2.63-17.06,5.33c-5.68,1.8-11.37,3.56-17,5.42l-.47.15.09-.49a47.25,47.25,0,0,1,5.31-14.63A50.86,50.86,0,0,1,76.4,83.81a36.67,36.67,0,0,1,13.44-8,52,52,0,0,1,15.43-2.82,45.55,45.55,0,0,1,15.59,2,29.81,29.81,0,0,1,7.19,3.36,18.27,18.27,0,0,1,5.66,5.65,16.13,16.13,0,0,1,2.3,7.64,24.89,24.89,0,0,1-.85,7.84,40,40,0,0,1-7,13.9l-.3.4-.12-.48a7,7,0,0,0-1.08-2.64,4.83,4.83,0,0,0-1-1c-.18-.16-.36-.32-.55-.46l-.61-.39a12.94,12.94,0,0,0-5.54-1.66,16,16,0,0,0-5.8.56A8.37,8.37,0,0,0,108.48,110.85Z"/><path class="cls-2" d="M121.09,116.5a9.12,9.12,0,0,0-2.62-1.46c-.94-.35-1.88-.65-2.78-1s-1.77-.78-2.67-1.21a13.83,13.83,0,0,0-2.79-1.06l.24-.51a21.62,21.62,0,0,0,2.88,2c1,.61,2,1.21,3,1.89a45.64,45.64,0,0,1,5.54,4.34h-1.05c.68-.48,1.43-.9,2.17-1.34l0,.57A8.07,8.07,0,0,0,121.09,116.5Zm.11-.14,2.38,1.83.27.21-.29.37c-.54.68-1.08,1.39-1.68,2l-.39.43-.66-.42a47.2,47.2,0,0,1-5.52-4.36c-.89-.76-1.71-1.61-2.54-2.45a21.67,21.67,0,0,0-2.66-2.32l-1-.72,1.23.21c1,.17,2,.27,3.05.44a10.15,10.15,0,0,1,2.95.93,10.76,10.76,0,0,1,2.55,1.79C119.67,115,120.41,115.73,121.2,116.36Z"/><path class="cls-2" d="M118.73,129a10.76,10.76,0,0,0,3.32.56,24.39,24.39,0,0,0,3.33-.24c1.09-.15,2.16-.29,3.22-.5a23.84,23.84,0,0,0,3.19-.76l-.11.91c-.82-.79-1.63-1.58-2.51-2.29s-1.78-1.39-2.71-2l-2.84-1.88c-1-.61-1.87-1.27-2.78-1.93h1a26.91,26.91,0,0,1-4.13,3,17.91,17.91,0,0,1-4.77,2l.32-1.31a22.53,22.53,0,0,0,2.39,2.61A9.86,9.86,0,0,0,118.73,129Zm-.06.17a25.73,25.73,0,0,1-3.37-1.48,17,17,0,0,1-3.14-2.07l-.92-.78,1.24-.53a41.9,41.9,0,0,0,4.3-2.13,40.67,40.67,0,0,0,4-2.65l.56-.42.49.41c.86.73,1.72,1.47,2.54,2.25l2.49,2.31c.85.75,1.71,1.48,2.62,2.15s1.86,1.29,2.81,1.9l.71.45-.82.46a14.18,14.18,0,0,1-3.27,1.35,11.62,11.62,0,0,1-3.52.35,16.68,16.68,0,0,1-3.46-.58C120.85,129.84,119.75,129.52,118.67,129.15Z"/><path class="cls-2" d="M130.25,119.67c-.54-1-1.1-2-1.61-3.08a23.14,23.14,0,0,1-1.35-3.24l1.26.25a16.53,16.53,0,0,1-2.22,2.85,24.64,24.64,0,0,1-2.71,2.39l0-.7a18.71,18.71,0,0,0,5.38,5.33c1,.72,2.13,1.35,3.22,2s2.16,1.27,3.27,1.8a14.28,14.28,0,0,0,1.65.7l.37.12c.11,0,.24,0,.18,0s-.24-.08-.56.36a.84.84,0,0,0-.11.65c0,.05.06.15,0,.14s-.07-.09-.16-.18c-.81-.82-1.85-1.74-2.67-2.74A42.44,42.44,0,0,1,130.25,119.67Zm.16-.09a20.39,20.39,0,0,0,5.05,5.61c.94.85,1.85,1.59,2.87,2.54a3.14,3.14,0,0,1,.45.56,1.25,1.25,0,0,1,.15.36,1.06,1.06,0,0,1-.13.87,1.18,1.18,0,0,1-1,.53,2.31,2.31,0,0,1-.76-.1,3.8,3.8,0,0,1-.54-.18,14.8,14.8,0,0,1-1.83-.89,32,32,0,0,1-3.28-2.16c-1-.79-2-1.68-2.94-2.56l-5.56-5.36-.32-.3.35-.4c.78-.87,1.48-1.81,2.22-2.7s1.47-1.79,2.26-2.65l1-1.13.23,1.38c.19,1.15.28,2.27.54,3.39A12.54,12.54,0,0,0,130.41,119.58Z"/></g></g></svg>