<svg xmlns="http://www.w3.org/2000/svg" viewBox="0 0 200 200"><defs><style>.cls-1{fill:#bf6eca;}.cls-2{fill:#262626;}</style></defs><g id="Capa_2" data-name="Capa 2"><g id="Capa_1-2" data-name="Capa 1"><rect class="cls-1" width="200" height="200"/><path class="cls-2" d="M120.73,116.5a8.93,8.93,0,0,0-2.61-1.46c-1-.35-1.89-.65-2.79-1s-1.77-.78-2.67-1.21a13.74,13.74,0,0,0-2.78-1.06l.23-.51a22.29,22.29,0,0,0,2.88,2c1,.61,2,1.21,3,1.89a46.43,46.43,0,0,1,5.54,4.34h-1c.68-.48,1.43-.9,2.16-1.34l0,.57A8.28,8.28,0,0,0,120.73,116.5Zm.11-.14,2.39,1.83.27.21-.3.37c-.54.68-1.07,1.39-1.67,2l-.4.43-.65-.42a45.59,45.59,0,0,1-5.52-4.36c-.89-.76-1.72-1.61-2.55-2.45a21.58,21.58,0,0,0-2.65-2.32l-1-.72,1.23.21c1,.17,2,.27,3.05.44a10.3,10.3,0,0,1,3,.93,10.91,10.91,0,0,1,2.54,1.79C119.31,115,120.05,115.73,120.84,116.36Z"/><path class="cls-2" d="M106.94,110.08a8.42,8.42,0,0,1,4.7-3.31,16,16,0,0,1,5.79-.62,12.87,12.87,0,0,1,5.59,1.63l.63.38c.2.15.38.31.57.47a5.22,5.22,0,0,1,1,1.06,7.49,7.49,0,0,1,1.2,2.71l-.4-.08a38.8,38.8,0,0,0,6.39-13.59,23.76,23.76,0,0,0,.59-7.41,14.76,14.76,0,0,0-2.28-6.88,17.15,17.15,0,0,0-5.23-5,28.25,28.25,0,0,0-6.74-3A47.3,47.3,0,0,0,104,74.5,52.46,52.46,0,0,0,89.24,77a34.79,34.79,0,0,0-12.92,7.38,48.82,48.82,0,0,0-9.49,11.67,45.4,45.4,0,0,0-5.27,14.11l-.38-.33c5.59-1.74,11.15-3.56,16.71-5.35S89,100.9,94.58,99.07l33.34-10.95,2.82-.93-2.1,2.12C120,98,108.94,104.52,96.71,106.76c-3.07.49-6,.74-9,1.31s-5.88,1.22-8.79,2a110.84,110.84,0,0,0-17,6.16,52.12,52.12,0,0,0-7.8,4.33,7.56,7.56,0,0,0-1.48,1.3l-.07.1s0,0,0,0h0a.29.29,0,0,0,0-.09.9.9,0,0,0-.05-.19.44.44,0,0,0-.16-.21.23.23,0,0,0-.12-.08s0,0,0,0a3.71,3.71,0,0,0,.8-.05c1.41-.24,2.91-.63,4.39-.95a75.6,75.6,0,0,1,18.23-2.07,61.88,61.88,0,0,1,18.08,2.91c2.91.94,5.69,2.22,8.57,3a14.48,14.48,0,0,0,4.44.52,15.24,15.24,0,0,0,2.23-.26c.73-.16,1.45-.38,2.18-.57l-.07.29a19.92,19.92,0,0,1-4.24-6.54,11.89,11.89,0,0,1-.84-3.82A6.89,6.89,0,0,1,106.94,110.08Zm.15.09a6.67,6.67,0,0,0-.81,3.69,11.58,11.58,0,0,0,.87,3.74,19.56,19.56,0,0,0,4.24,6.38l.2.2-.27.1a16.08,16.08,0,0,1-9.09.48c-3-.76-5.78-2-8.67-2.8a60.19,60.19,0,0,0-17.85-2.33A77.39,77.39,0,0,0,57.87,122c-1.48.35-2.91.75-4.5,1a4.2,4.2,0,0,1-1.46.05l-.28-.08a2.14,2.14,0,0,1-.38-.23,1.46,1.46,0,0,1-.32-.43,1.35,1.35,0,0,1-.09-.47,1.69,1.69,0,0,1,0-.23c0-.06,0-.1,0-.15s.07-.19.1-.29a4.48,4.48,0,0,1,.23-.39,9.05,9.05,0,0,1,1.89-1.73,54.19,54.19,0,0,1,8.09-4.52,111.46,111.46,0,0,1,17.23-6.32c3-.81,5.94-1.53,9-2.06s6.11-.8,9-1.24a45.82,45.82,0,0,0,8.63-2.3A57.07,57.07,0,0,0,113.22,99a68.14,68.14,0,0,0,14.42-10.7l.71,1.19L94.83,99.86q-8.39,2.58-16.75,5.23c-5.57,1.77-11.16,3.5-16.72,5.32l-.46.16.08-.49A46.74,46.74,0,0,1,66.2,95.72a49.89,49.89,0,0,1,9.4-12.1,36,36,0,0,1,13.19-7.9A51.18,51.18,0,0,1,103.94,73a44.67,44.67,0,0,1,15.31,2,29.12,29.12,0,0,1,7.06,3.3,17.85,17.85,0,0,1,5.56,5.55,15.85,15.85,0,0,1,2.26,7.49,24.59,24.59,0,0,1-.84,7.7,39.05,39.05,0,0,1-6.87,13.65l-.29.39-.11-.47a7.06,7.06,0,0,0-1.06-2.59,5.21,5.21,0,0,0-1-1l-.55-.45-.6-.37a12.63,12.63,0,0,0-5.44-1.64,15.62,15.62,0,0,0-5.69.56A8.19,8.19,0,0,0,107.09,110.17Z"/><path class="cls-2" d="M117.16,128a10.37,10.37,0,0,0,3.26.55,25.17,25.17,0,0,0,3.27-.23c1.06-.15,2.11-.28,3.16-.49l.78-.15c.26-.08.52-.14.78-.21l1.57-.39-.11.89c-.8-.77-1.6-1.55-2.47-2.24s-1.74-1.37-2.65-2L122,121.86c-.93-.61-1.84-1.25-2.73-1.9h1a26.61,26.61,0,0,1-4.06,3,17.58,17.58,0,0,1-4.68,1.93l.32-1.29a21.8,21.8,0,0,0,2.34,2.57A9.82,9.82,0,0,0,117.16,128Zm-.06.17a25.37,25.37,0,0,1-3.31-1.45,16.91,16.91,0,0,1-3.08-2l-.9-.78,1.21-.52a40.42,40.42,0,0,0,8.2-4.68l.54-.42.48.41c.85.71,1.69,1.44,2.5,2.2l2.44,2.27c.83.74,1.68,1.46,2.57,2.11s1.83,1.27,2.77,1.87l.76.49-.88.4c-.52.23-1,.49-1.57.72-.27.12-.53.25-.8.35l-.84.25a11.17,11.17,0,0,1-3.45.35,16.11,16.11,0,0,1-3.4-.57C119.24,128.82,118.16,128.5,117.1,128.14Z"/><path class="cls-2" d="M129.94,119.63c-.54-1-1.09-2-1.61-3.06a24.1,24.1,0,0,1-1.34-3.22l1.26.25a16.83,16.83,0,0,1-2.21,2.83,22.46,22.46,0,0,1-2.7,2.37l0-.69a18.75,18.75,0,0,0,5.35,5.3c1,.72,2.13,1.35,3.2,2s2.15,1.26,3.25,1.79a14.16,14.16,0,0,0,1.65.69,3.68,3.68,0,0,0,.37.11c.1,0,.23,0,.18,0a.71.71,0,0,0-.56.37.77.77,0,0,0-.11.64.46.46,0,0,0,.05.14s-.07-.09-.16-.18c-.81-.82-1.84-1.73-2.66-2.72A41.54,41.54,0,0,1,129.94,119.63Zm.16-.08a20.27,20.27,0,0,0,5,5.57c.94.85,1.84,1.59,2.86,2.53a2.77,2.77,0,0,1,.44.56,1.17,1.17,0,0,1,.15.35,1.1,1.1,0,0,1-.13.87,1.18,1.18,0,0,1-1,.53,3,3,0,0,1-.75-.1l-.54-.18a15.41,15.41,0,0,1-1.82-.9,30,30,0,0,1-3.26-2.14c-1-.78-2-1.67-2.92-2.54l-5.53-5.33-.32-.3.35-.39c.77-.88,1.46-1.81,2.2-2.69s1.46-1.78,2.25-2.64l1-1.13.23,1.38c.19,1.15.28,2.26.53,3.37A12.62,12.62,0,0,0,130.1,119.55Z"/></g></g></svg>