<svg xmlns="http://www.w3.org/2000/svg" xmlns:xlink="http://www.w3.org/1999/xlink" viewBox="0 0 1081.41 962.41"><defs><style>.cls-1,.cls-2{fill:none;}.cls-2{stroke:#262626;stroke-width:2px;}.cls-2,.cls-4{stroke-miterlimit:10;}.cls-3{fill:#262626;}.cls-4{stroke-width:1.41px;fill:url(#Motivo_nuevo);stroke:url(#Motivo_nuevo);}</style><pattern id="Motivo_nuevo" data-name="Motivo nuevo" width="428" height="692.5" patternUnits="userSpaceOnUse" viewBox="0 0 428 692.5"><rect class="cls-1" width="428" height="692.5"/><path class="cls-2" d="M31.88,257.39a146.11,146.11,0,0,1,5.37-20.47c12.38-36.21,37.06-61.28,52.39-72.5,50.83-37.2,150.19-32.93,171.76,14.12C280.81,220.9,235.52,294.24,187,304.4c-27.25,5.7-37.24-12.32-86.79-17.34-58.61-5.93-97.4,13.94-99.12,8.7-1.93-5.87,46.08-32.81,104.13-45.7,29.45-6.53,36.45-3.89,59.15-10.74,38.59-11.64,66.21-33.69,83.81-50.95Z"/><path class="cls-2" d="M192.88,643.39a146.11,146.11,0,0,1,5.37-20.47c12.38-36.21,37.06-61.28,52.39-72.5,50.83-37.2,150.19-32.93,171.76,14.12C441.81,606.9,396.52,680.24,348,690.4c-27.25,5.7-37.24-12.32-86.79-17.34-58.61-5.93-97.4,13.94-99.12,8.7-1.93-5.87,46.08-32.81,104.13-45.7,29.45-6.53,36.45-3.89,59.15-10.74,38.59-11.64,66.21-33.69,83.81-51Z"/><path class="cls-3" d="M254.09,388.51l-17.38-13.38-17.49-13.36-.81,1.77a90.76,90.76,0,0,1,20.51,7,75.09,75.09,0,0,1,17.86,12.11c2.59,2.46,5,5.27,7.63,7.86s5.39,5.06,8.22,7.42a151.34,151.34,0,0,0,18,12.81A97.26,97.26,0,0,0,300.4,416c.85.38,1.71.74,2.59,1.07a13.94,13.94,0,0,0,2.81.8l.4.05h.47a2,2,0,0,0,.61-.17,1.49,1.49,0,0,0,.38-.28,1.35,1.35,0,0,0,.25-.51,1.38,1.38,0,0,0-.1-.79,2.14,2.14,0,0,0-.25-.44,5.63,5.63,0,0,0-.51-.62c-.69-.71-1.38-1.31-2.08-1.91-2.79-2.39-5.56-4.74-8.16-7.29a93.48,93.48,0,0,1-7.38-8,78.11,78.11,0,0,1-11.36-18.57,99.54,99.54,0,0,1-3.48-10.38,31.3,31.3,0,0,0-2-5.17,17.66,17.66,0,0,0-3.31-4.46,24.54,24.54,0,0,0-4.31-3.5,32.75,32.75,0,0,0-4.87-2.64,46.2,46.2,0,0,0-10.57-3.2,53.29,53.29,0,0,0-22,.41,35.74,35.74,0,0,0-5.31,1.72,26.63,26.63,0,0,0-5,2.66,19.4,19.4,0,0,0-4.22,3.83,16.49,16.49,0,0,0-2.73,5.05,23.08,23.08,0,0,0-.47,11.28,42.6,42.6,0,0,0,3.61,10.59,67.37,67.37,0,0,0,21.81,24.82,47.9,47.9,0,0,0,9.82,5.22,53.58,53.58,0,0,0,10.73,2.84,65.82,65.82,0,0,0,11,.89,62.27,62.27,0,0,0,11-1.05c1.8-.37,3.6-.76,5.36-1.29.88-.27,1.76-.55,2.62-.86l1.3-.47.64-.25.32-.13a2.7,2.7,0,0,0,.38-.21ZM287.93,415l-.31.11-.65.23-1.31.42c-.87.27-1.75.51-2.63.74-1.76.47-3.56.81-5.35,1.11a61,61,0,0,1-10.88.71,66.72,66.72,0,0,1-10.84-1.1,52.63,52.63,0,0,1-10.42-3,56.85,56.85,0,0,1-17.8-12.13A63.84,63.84,0,0,1,215,384.7a40.56,40.56,0,0,1-3.53-10.12,21.46,21.46,0,0,1,.34-10.45,16.13,16.13,0,0,1,2.39-4.6,18.16,18.16,0,0,1,3.82-3.6,24.46,24.46,0,0,1,4.66-2.62,34.38,34.38,0,0,1,5.09-1.76,51.63,51.63,0,0,1,21.58-.83,45.1,45.1,0,0,1,10.43,3.06,32,32,0,0,1,4.8,2.55,23.78,23.78,0,0,1,4.23,3.38,17,17,0,0,1,3.18,4.34,30.56,30.56,0,0,1,1.94,5.06,99.21,99.21,0,0,0,3.43,10.47,80.57,80.57,0,0,0,11.18,19,96,96,0,0,0,7.32,8.29c2.59,2.62,5.34,5.08,8.09,7.49.67.6,1.36,1.21,1.93,1.83a4.33,4.33,0,0,1,.37.44c.12.13.07.28.1,0a.41.41,0,0,1,.1-.21.18.18,0,0,1,.1-.09h-.27l-.27,0a12.24,12.24,0,0,1-2.46-.74c-.83-.32-1.66-.68-2.47-1.06a98.2,98.2,0,0,1-9.53-5.25,151.06,151.06,0,0,1-17.68-12.79c-2.78-2.34-5.48-4.79-8-7.35s-4.91-5.37-7.63-8a76.5,76.5,0,0,0-18.41-12.42,92.29,92.29,0,0,0-21-7.14l-4.51-1,3.7,2.74,17.35,12.84L252.83,389,288.2,415A1.73,1.73,0,0,0,287.93,415Z"/><path class="cls-3" d="M157.09,39.51,139.71,26.13,122.22,12.77l-.81,1.77a90.76,90.76,0,0,1,20.51,7,75.09,75.09,0,0,1,17.86,12.11c2.59,2.46,5,5.27,7.63,7.86s5.39,5.06,8.22,7.42a151.34,151.34,0,0,0,18,12.81A97.26,97.26,0,0,0,203.4,67c.85.38,1.71.74,2.59,1.07a13.94,13.94,0,0,0,2.81.8l.4.05h.47a2,2,0,0,0,.61-.17,1.49,1.49,0,0,0,.38-.28,1.35,1.35,0,0,0,.25-.51,1.38,1.38,0,0,0-.1-.79,2.14,2.14,0,0,0-.25-.44,5.63,5.63,0,0,0-.51-.62c-.69-.71-1.38-1.31-2.08-1.91-2.79-2.39-5.56-4.74-8.16-7.29a93.48,93.48,0,0,1-7.38-8A78.11,78.11,0,0,1,181.07,30.3a99.54,99.54,0,0,1-3.48-10.38,31.3,31.3,0,0,0-2-5.17,17.66,17.66,0,0,0-3.31-4.46A24.54,24.54,0,0,0,168,6.79a32.75,32.75,0,0,0-4.87-2.64A46.2,46.2,0,0,0,152.51,1a53.29,53.29,0,0,0-22,.41,35.74,35.74,0,0,0-5.31,1.72,26.63,26.63,0,0,0-5,2.66A19.4,19.4,0,0,0,116,9.57a16.49,16.49,0,0,0-2.73,5,23.08,23.08,0,0,0-.47,11.28,42.6,42.6,0,0,0,3.61,10.59,65.67,65.67,0,0,0,13.21,17.8,65.21,65.21,0,0,0,8.6,7A47.9,47.9,0,0,0,148,66.53a53.58,53.58,0,0,0,10.73,2.84,65.82,65.82,0,0,0,11,.89,62.27,62.27,0,0,0,11-1.05c1.8-.37,3.6-.76,5.36-1.29.88-.27,1.76-.55,2.62-.86l1.3-.47.64-.25.32-.13a2.7,2.7,0,0,0,.38-.21ZM190.93,66l-.31.11-.65.23-1.31.42c-.87.27-1.75.51-2.63.74-1.76.47-3.56.81-5.35,1.11a61,61,0,0,1-10.88.71A66.72,66.72,0,0,1,159,68.23a52.63,52.63,0,0,1-10.42-3,56.85,56.85,0,0,1-17.8-12.13A63.84,63.84,0,0,1,118,35.7a40.56,40.56,0,0,1-3.53-10.12,21.46,21.46,0,0,1,.34-10.45,16.13,16.13,0,0,1,2.39-4.6A18.16,18.16,0,0,1,121,6.93a24.46,24.46,0,0,1,4.66-2.62,34.38,34.38,0,0,1,5.09-1.76,51.63,51.63,0,0,1,21.58-.83A45.1,45.1,0,0,1,162.8,4.78a32,32,0,0,1,4.8,2.55,23.78,23.78,0,0,1,4.23,3.38A17,17,0,0,1,175,15.05,30.56,30.56,0,0,1,177,20.11a99.21,99.21,0,0,0,3.43,10.47,80.57,80.57,0,0,0,11.18,19,96,96,0,0,0,7.32,8.29c2.59,2.62,5.34,5.08,8.09,7.49.67.6,1.36,1.21,1.93,1.83a4.33,4.33,0,0,1,.37.44c.12.13.07.28.1,0a.41.41,0,0,1,.1-.21.18.18,0,0,1,.1-.09s0,0,0,0h-.22l-.27,0a12.24,12.24,0,0,1-2.46-.74c-.83-.32-1.66-.68-2.47-1.06a98.2,98.2,0,0,1-9.53-5.25,151.06,151.06,0,0,1-17.68-12.79c-2.78-2.34-5.48-4.79-8-7.35s-4.91-5.37-7.63-8a76.5,76.5,0,0,0-18.41-12.42,92.29,92.29,0,0,0-21-7.14l-4.51-1,3.7,2.74L138.38,27.2,155.83,40,191.2,66A1.73,1.73,0,0,0,190.93,66Z"/></pattern></defs><g id="Capa_2" data-name="Capa 2"><g id="Capa_1-2" data-name="Capa 1"><rect class="cls-4" x="0.71" y="0.71" width="1080" height="961"/></g></g></svg>